<svg width="256" height="256" viewBox="0 0 256 256" fill="none" xmlns="http://www.w3.org/2000/svg">
  <rect width="256" height="256" rx="24" fill="#B31B1B"/>
  <g opacity="0.38" fill="white">
    <circle cx="18" cy="18" r="1.8"/>
    <circle cx="30" cy="18" r="1.8"/>
    <circle cx="42" cy="18" r="1.8"/>
    <circle cx="54" cy="18" r="1.8"/>
    <circle cx="66" cy="18" r="1.8"/>
    <circle cx="78" cy="18" r="1.8"/>
    <circle cx="90" cy="18" r="1.8"/>
    <circle cx="102" cy="18" r="1.8"/>
    <circle cx="114" cy="18" r="1.8"/>
    <circle cx="126" cy="18" r="1.8"/>
    <circle cx="138" cy="18" r="1.8"/>
    <circle cx="150" cy="18" r="1.8"/>
    <circle cx="162" cy="18" r="1.8"/>
    <circle cx="174" cy="18" r="1.8"/>
    <circle cx="186" cy="18" r="1.8"/>
    <circle cx="198" cy="18" r="1.8"/>
    <circle cx="210" cy="18" r="1.8"/>
    <circle cx="222" cy="18" r="1.8"/>
    <circle cx="18" cy="30" r="1.8"/>
    <circle cx="30" cy="30" r="1.8"/>
    <circle cx="42" cy="30" r="1.8"/>
    <circle cx="54" cy="30" r="1.8"/>
    <circle cx="66" cy="30" r="1.8"/>
    <circle cx="78" cy="30" r="1.8"/>
    <circle cx="90" cy="30" r="1.8"/>
    <circle cx="102" cy="30" r="1.8"/>
    <circle cx="114" cy="30" r="1.8"/>
    <circle cx="126" cy="30" r="1.8"/>
    <circle cx="138" cy="30" r="1.8"/>
    <circle cx="150" cy="30" r="1.8"/>
    <circle cx="162" cy="30" r="1.8"/>
    <circle cx="174" cy="30" r="1.8"/>
    <circle cx="186" cy="30" r="1.8"/>
    <circle cx="198" cy="30" r="1.8"/>
    <circle cx="210" cy="30" r="1.8"/>
    <circle cx="222" cy="30" r="1.8"/>
    <circle cx="18" cy="42" r="1.8"/>
    <circle cx="30" cy="42" r="1.8"/>
    <circle cx="42" cy="42" r="1.8"/>
    <circle cx="54" cy="42" r="1.8"/>
    <circle cx="66" cy="42" r="1.8"/>
    <circle cx="78" cy="42" r="1.8"/>
    <circle cx="90" cy="42" r="1.8"/>
    <circle cx="102" cy="42" r="1.8"/>
    <circle cx="114" cy="42" r="1.8"/>
    <circle cx="126" cy="42" r="1.8"/>
    <circle cx="138" cy="42" r="1.8"/>
    <circle cx="150" cy="42" r="1.8"/>
    <circle cx="162" cy="42" r="1.8"/>
    <circle cx="174" cy="42" r="1.8"/>
    <circle cx="186" cy="42" r="1.8"/>
    <circle cx="198" cy="42" r="1.8"/>
    <circle cx="210" cy="42" r="1.8"/>
    <circle cx="222" cy="42" r="1.8"/>
    <circle cx="18" cy="54" r="1.8"/>
    <circle cx="30" cy="54" r="1.8"/>
    <circle cx="42" cy="54" r="1.8"/>
    <circle cx="54" cy="54" r="1.8"/>
    <circle cx="66" cy="54" r="1.8"/>
    <circle cx="78" cy="54" r="1.8"/>
    <circle cx="90" cy="54" r="1.8"/>
    <circle cx="102" cy="54" r="1.8"/>
    <circle cx="114" cy="54" r="1.8"/>
    <circle cx="126" cy="54" r="1.8"/>
    <circle cx="138" cy="54" r="1.8"/>
    <circle cx="150" cy="54" r="1.8"/>
    <circle cx="162" cy="54" r="1.8"/>
    <circle cx="174" cy="54" r="1.8"/>
    <circle cx="186" cy="54" r="1.8"/>
    <circle cx="198" cy="54" r="1.8"/>
    <circle cx="210" cy="54" r="1.8"/>
    <circle cx="222" cy="54" r="1.8"/>
    <circle cx="18" cy="202" r="1.8"/>
    <circle cx="30" cy="202" r="1.8"/>
    <circle cx="42" cy="202" r="1.8"/>
    <circle cx="54" cy="202" r="1.8"/>
    <circle cx="66" cy="202" r="1.8"/>
    <circle cx="78" cy="202" r="1.8"/>
    <circle cx="90" cy="202" r="1.8"/>
    <circle cx="102" cy="202" r="1.8"/>
    <circle cx="114" cy="202" r="1.8"/>
    <circle cx="126" cy="202" r="1.8"/>
    <circle cx="138" cy="202" r="1.8"/>
    <circle cx="150" cy="202" r="1.8"/>
    <circle cx="162" cy="202" r="1.8"/>
    <circle cx="174" cy="202" r="1.8"/>
    <circle cx="186" cy="202" r="1.8"/>
    <circle cx="198" cy="202" r="1.8"/>
    <circle cx="210" cy="202" r="1.8"/>
    <circle cx="222" cy="202" r="1.8"/>
    <circle cx="18" cy="214" r="1.8"/>
    <circle cx="30" cy="214" r="1.8"/>
    <circle cx="42" cy="214" r="1.8"/>
    <circle cx="54" cy="214" r="1.8"/>
    <circle cx="66" cy="214" r="1.8"/>
    <circle cx="78" cy="214" r="1.8"/>
    <circle cx="90" cy="214" r="1.8"/>
    <circle cx="102" cy="214" r="1.8"/>
    <circle cx="114" cy="214" r="1.8"/>
    <circle cx="126" cy="214" r="1.8"/>
    <circle cx="138" cy="214" r="1.8"/>
    <circle cx="150" cy="214" r="1.8"/>
    <circle cx="162" cy="214" r="1.8"/>
    <circle cx="174" cy="214" r="1.8"/>
    <circle cx="186" cy="214" r="1.8"/>
    <circle cx="198" cy="214" r="1.8"/>
    <circle cx="210" cy="214" r="1.8"/>
    <circle cx="222" cy="214" r="1.8"/>
    <circle cx="18" cy="226" r="1.8"/>
    <circle cx="30" cy="226" r="1.8"/>
    <circle cx="42" cy="226" r="1.8"/>
    <circle cx="54" cy="226" r="1.8"/>
    <circle cx="66" cy="226" r="1.8"/>
    <circle cx="78" cy="226" r="1.8"/>
    <circle cx="90" cy="226" r="1.8"/>
    <circle cx="102" cy="226" r="1.8"/>
    <circle cx="114" cy="226" r="1.8"/>
    <circle cx="126" cy="226" r="1.8"/>
    <circle cx="138" cy="226" r="1.8"/>
    <circle cx="150" cy="226" r="1.8"/>
    <circle cx="162" cy="226" r="1.8"/>
    <circle cx="174" cy="226" r="1.8"/>
    <circle cx="186" cy="226" r="1.8"/>
    <circle cx="198" cy="226" r="1.8"/>
    <circle cx="210" cy="226" r="1.8"/>
    <circle cx="222" cy="226" r="1.8"/>
    <circle cx="18" cy="238" r="1.8"/>
    <circle cx="30" cy="238" r="1.8"/>
    <circle cx="42" cy="238" r="1.8"/>
    <circle cx="54" cy="238" r="1.8"/>
    <circle cx="66" cy="238" r="1.8"/>
    <circle cx="78" cy="238" r="1.8"/>
    <circle cx="90" cy="238" r="1.8"/>
    <circle cx="102" cy="238" r="1.8"/>
    <circle cx="114" cy="238" r="1.8"/>
    <circle cx="126" cy="238" r="1.8"/>
    <circle cx="138" cy="238" r="1.8"/>
    <circle cx="150" cy="238" r="1.8"/>
    <circle cx="162" cy="238" r="1.8"/>
    <circle cx="174" cy="238" r="1.8"/>
    <circle cx="186" cy="238" r="1.8"/>
    <circle cx="198" cy="238" r="1.8"/>
    <circle cx="210" cy="238" r="1.8"/>
    <circle cx="222" cy="238" r="1.8"/>
  </g>
  <text x="48" y="104" fill="white" font-family="Avenir Next, Arial, sans-serif" font-size="42" font-weight="500">Cornell</text>
  <text x="48" y="144" fill="white" font-family="Avenir Next, Arial, sans-serif" font-size="42" font-weight="500">Bowers</text>
</svg>
